<svg width="36" height="35" viewBox="0 0 36 35" fill="none" xmlns="http://www.w3.org/2000/svg">
<path d="M16.9001 23.431C15.9112 24.155 14.5001 23.4663 14.5001 22.2596V12.7418C14.5001 11.5351 15.9112 10.8464 16.9001 11.5703L23.4001 16.3293C24.2001 16.915 24.2001 18.0864 23.4001 18.6721L16.9001 23.431Z" fill="#5F75AA"/>
<path fill-rule="evenodd" clip-rule="evenodd" d="M18 3.34581C9.99685 3.34581 3.5 9.68798 3.5 17.5006C3.5 25.3132 9.99685 31.6553 18 31.6553C26.0032 31.6553 32.5 25.3132 32.5 17.5006C32.5 9.68798 26.0032 3.34581 18 3.34581ZM0.5 17.5006C0.5 8.07057 8.34 0.417236 18 0.417236C27.66 0.417236 35.5 8.07057 35.5 17.5006C35.5 26.9306 27.66 34.5839 18 34.5839C8.34 34.5839 0.5 26.9306 0.5 17.5006Z" fill="#5F75AA"/>
</svg>
