<svg width="23" height="27" viewBox="0 0 23 27" fill="none" xmlns="http://www.w3.org/2000/svg">
<path d="M22.1417 10.3214C22.1417 15.3569 22.1417 20.3934 22.1417 25.4289C22.1296 25.4636 22.1129 25.4983 22.1074 25.534C22.0414 25.8995 21.8734 26.2023 21.6004 26.4433C21.2521 26.7519 20.8399 26.829 20.396 26.8281C14.4392 26.8252 8.48336 26.8262 2.52657 26.8262C2.45321 26.8262 2.37893 26.8213 2.30557 26.8223C1.58314 26.8339 0.765999 26.1936 0.785499 25.1734C0.813356 23.7231 0.792927 22.2728 0.792927 20.8215C0.792927 17.4089 0.794784 13.9973 0.79107 10.5847C0.79107 10.2105 0.85607 9.8499 1.04178 9.5394C1.65278 8.5134 2.29257 7.50476 2.90728 6.48068C3.12271 6.12197 3.40036 5.97347 3.80893 5.98793C4.52207 6.01204 5.23614 5.99468 5.95021 5.99468C6.01521 5.99468 6.08021 5.99468 6.18886 5.99468C6.18886 5.61283 6.16193 5.25411 6.1935 4.90022C6.36621 2.93983 7.30314 1.49243 8.98014 0.586968C10.0647 0.00164663 11.2384 -0.105389 12.4316 0.0884323C14.2377 0.381575 15.5284 1.41529 16.3084 3.12497C16.6455 3.86361 16.7625 4.65818 16.7588 5.47204C16.7579 5.64176 16.7588 5.81243 16.7588 5.99372C16.8544 5.99372 16.9213 5.99372 16.9881 5.99372C17.7514 5.99372 18.5138 5.99565 19.2771 5.99276C19.6132 5.99179 19.8556 6.13354 19.9902 6.4614C20.019 6.53083 20.0608 6.59543 20.1007 6.66004C20.5678 7.41893 21.0321 8.17879 21.5047 8.93383C21.774 9.36969 22.0442 9.80265 22.1417 10.3214ZM11.4678 10.3571C8.47778 10.3571 5.48778 10.3571 2.49778 10.3571C2.23314 10.3571 2.23221 10.3571 2.23221 10.631C2.23221 15.4543 2.23221 20.2787 2.23221 25.102C2.23221 25.3855 2.23221 25.3855 2.51078 25.3855C8.47871 25.3855 14.4466 25.3855 20.4146 25.3855C20.6922 25.3855 20.695 25.3826 20.695 25.0982C20.695 20.2806 20.695 15.463 20.695 10.6464C20.695 10.3571 20.695 10.3571 20.4211 10.3571C17.4357 10.3571 14.4522 10.3571 11.4678 10.3571ZM7.60586 5.98215C10.1845 5.98215 12.7511 5.98215 15.3158 5.98215C15.4309 4.42868 15.0224 3.01311 13.7159 2.13368C12.3369 1.20604 10.8521 1.18193 9.42957 2.00254C7.955 2.85304 7.51857 4.29561 7.60586 5.98215ZM7.60864 7.46136C7.60864 7.94061 7.60864 8.40926 7.60864 8.88658C10.1845 8.88658 12.7511 8.88658 15.3214 8.88658C15.3214 8.40347 15.3214 7.93483 15.3214 7.46136C12.7446 7.46136 10.1817 7.46136 7.60864 7.46136ZM6.15078 7.45076C5.45064 7.45076 4.76907 7.44786 4.0875 7.45558C4.03736 7.45654 3.97143 7.51922 3.93986 7.57033C3.69378 7.96761 3.45421 8.36972 3.21464 8.77086C3.19421 8.80558 3.18307 8.84608 3.16728 8.88754C4.16921 8.88754 5.15628 8.88754 6.15078 8.88754C6.15078 8.40926 6.15078 7.94447 6.15078 7.45076ZM16.7662 8.88851C17.7691 8.88851 18.7496 8.88851 19.7451 8.88851C19.7302 8.8509 19.7237 8.82776 19.7116 8.80847C19.4554 8.38804 19.2028 7.96472 18.9381 7.55008C18.9038 7.49608 18.8119 7.45558 18.745 7.45461C18.1368 7.44786 17.5276 7.44979 16.9194 7.45076C16.8674 7.45076 16.8145 7.45943 16.7653 7.46426C16.7662 7.94929 16.7662 8.41408 16.7662 8.88851Z" fill="#686868"/>
</svg>
